<?xml version="1.0" encoding="UTF-8"?>
<svg xmlns="http://www.w3.org/2000/svg" xmlns:i="http://ns.adobe.com/AdobeIllustrator/10.0/" version="1.1"
  viewBox="0 0 566.9 113.2">
  <!-- Generator: Adobe Illustrator 29.8.1, SVG Export Plug-In . SVG Version: 2.1.1 Build 2)  -->
  <defs>
    <style>
      .st0 {
        fill: #00acff;
      }

      .st1 {
        fill: #143d8a;
      }
    </style>
  </defs>
  <rect class="st1" y="1.6" width="111.5" height="111.6" />
  <g>
    <path class="st0"
      d="M49,15c-2.2,2.4-2.1,6.2.3,8.5.9.9,3.7,3.7,3.7,3.7,2.2-2.4,2.1-6.2-.3-8.5-.9-.9-3.7-3.7-3.7-3.7" />
    <path class="st0" d="M58.9,18.7c-2.3,2.3-2.4,6.1-.3,8.5l3.7-3.7c2.3-2.3,2.4-6.1.3-8.5,0,0-2.7,2.7-3.7,3.7" />
    <path class="st0" d="M58.9,32.1c-2.3,2.3-2.4,6.1-.3,8.5l3.7-3.7c2.3-2.3,2.4-6.1.3-8.5,0,0-2.7,2.7-3.7,3.7" />
    <path class="st0"
      d="M50.2,43.2c-2.4-2.4-6.2-2.4-8.6-.2,0,0,7.4,7.4,9.9,9.9,1.2,1.2,2.8,1.8,4.4,1.8s3.2-.7,4.4-1.8c2.5-2.5,9.9-9.9,9.9-9.9-2.4-2.2-6.3-2.1-8.6.2-1.4,1.4-5.7,5.7-5.7,5.7,0,0-4.3-4.3-5.7-5.7" />
    <path class="st0"
      d="M52.9,32.3c-3.6-3.6-14.3-14.4-14.3-14.4-2.2,2.5-2.1,6.2.2,8.6,3.6,3.6,14.4,14.4,14.4,14.4,2.2-2.4,2.1-6.2-.2-8.6" />
    <path class="st0" d="M89.2,60.8c.2,3.3,2.9,6,6.3,6h2.6c-.2-3.3-2.9-6-6.3-6h-2.6Z" />
    <path class="st0"
      d="M86.3,71.2c2.2-2.5,2.2-6.3-.2-8.7-.5-.5-1.8-1.9-1.8-1.9-2.2,2.5-2.2,6.3.2,8.7.5.5,1.8,1.9,1.8,1.9" />
    <path class="st0"
      d="M66.1,66c2.5,2.2,6.2,2.1,8.6-.2,2.7-2.7,10.7-10.7,10.7-10.7-2.5-2.2-6.2-2.1-8.6.2-2.7,2.7-10.7,10.7-10.7,10.7" />
    <path class="st0"
      d="M96.8,43.7c-2.5-2.2-6.2-2.1-8.6.2-1.5,1.5-5.9,5.9-5.9,5.9,2.5,2.2,6.2,2.1,8.6-.2,1.5-1.5,5.9-5.9,5.9-5.9" />
    <path class="st0"
      d="M14.9,43.8c2.5-2.2,6.2-2.1,8.6.2,2.7,2.7,10.7,10.7,10.7,10.7-2.5,2.2-6.2,2.1-8.6-.2-2.7-2.7-10.7-10.7-10.7-10.7" />
    <path class="st0"
      d="M19,34.2c2.5-2.2,6.2-2.1,8.6.2,2.7,2.7,8.9,9,8.9,9-2.5,2.2-6.2,2.1-8.6-.2-2.7-2.7-8.9-9-8.9-9" />
    <path class="st0"
      d="M45.2,65.6c-2.5,2.2-6.2,2.1-8.6-.2-1.5-1.5-5.9-5.9-5.9-5.9,2.5-2.2,6.2-2.1,8.6.2,1.5,1.5,5.9,5.9,5.9,5.9" />
    <path class="st0"
      d="M85.5,41.3c-2.5-2.2-6.2-2.1-8.6.2-2.2,2.2-8.9,9-8.9,9,2.5,2.2,6.2,2.1,8.6-.2,2.2-2.2,8.9-9,8.9-9" />
    <path class="st0" d="M63.7,63l2-2c2.4-2.4,2.4-6.2.2-8.6,0,0-1.5,1.5-2,2-2.4,2.4-2.4,6.1-.2,8.6" />
    <path class="st0" d="M47.8,63s-1.5-1.5-2-2c-2.4-2.4-2.4-6.2-.2-8.6,0,0,1.5,1.5,2,2,2.3,2.4,2.4,6.1.2,8.6" />
    <path class="st0" d="M79,34.1s1.5-1.5,2-2c2.4-2.4,2.4-6.1.2-8.6,0,0-1.5,1.5-2,2-2.3,2.3-2.4,6.1-.2,8.6" />
    <path class="st0" d="M75.1,75.7s1.7-.9,2.3-1.3c3-1.6,4.1-5.3,2.7-8.3,0,0-1.7.9-2.3,1.3-2.9,1.6-4.1,5.3-2.6,8.3" />
    <path class="st0" d="M89.6,57.5h2.6c3.4,0,6.1-2.7,6.3-6h-2.6c-3.4,0-6.1,2.6-6.3,6" />
    <path class="st0" d="M22.3,60.8c-.2,3.3-2.9,6-6.3,6h-2.6c.2-3.3,2.9-6,6.3-6h2.6Z" />
    <path class="st0"
      d="M25.2,71.2c-2.2-2.5-2.2-6.3.2-8.7.5-.5,1.8-1.9,1.8-1.9,2.2,2.5,2.2,6.3-.2,8.7-.5.5-1.8,1.9-1.8,1.9" />
    <path class="st0"
      d="M36.4,75.7s-1.7-.9-2.3-1.3c-2.9-1.6-4.1-5.3-2.6-8.3,0,0,1.7.9,2.3,1.3,2.9,1.6,4.1,5.3,2.6,8.3" />
    <path class="st0" d="M22,57.5h-2.6c-3.4,0-6.1-2.7-6.3-6h2.6c3.4,0,6.1,2.7,6.3,6" />
    <path class="st0" d="M92.3,34.4c-2.5-2.2-6.2-2.1-8.6.2s-2,2-2,2c2.5,2.2,6.2,2.1,8.6-.2.5-.5,2-2,2-2" />
    <path class="st0"
      d="M72.6,41s1.2-1.8,1.6-2.4c1.9-2.8,1.2-6.5-1.4-8.5,0,0-1.2,1.8-1.6,2.4-1.9,2.8-1.2,6.5,1.4,8.5" />
    <path class="st0"
      d="M39.3,41s-1.2-1.8-1.6-2.4c-1.9-2.8-1.2-6.5,1.4-8.5,0,0,1.2,1.8,1.6,2.4,1.9,2.8,1.2,6.5-1.4,8.5" />
    <path class="st0" d="M43.9,50.7s-1.5-1.5-2-2c-2.4-2.4-6.1-2.4-8.6-.2,0,0,1.5,1.5,2,2,2.4,2.4,6.2,2.4,8.6.2" />
    <path class="st0" d="M66.9,32.4s4.4-4.4,5.9-5.9c2.4-2.4,2.4-6.1.2-8.6,0,0-4.4,4.4-5.9,5.9-2.4,2.4-2.4,6.1-.2,8.6" />
    <path class="st0"
      d="M34.4,33c1.2-3.1-.2-6.6-3.2-8-.7-.3-2.6-1.2-2.6-1.2-1.2,3.1.2,6.6,3.2,8,.7.3,2.6,1.2,2.6,1.2" />
    <path class="st0"
      d="M66.3,95.4c-3.8.8-6.9,1-7.4,1-.3,0-.5,0-.8,0,.2,1.9,1.7,3.3,4.1,3,2.4-.3,5.5-.9,8.3-1.7-.2-.9-1.6-2.9-4.2-2.4" />
    <path class="st0"
      d="M59.1,77l7.4-7.4c-1.3-1.3-3.4-1.3-4.7,0-.7.7-2.7,2.7-2.7,2.7v-14.6c-3.7,0-6.7,3-6.7,6.7v7.9s-2-2-2.6-2.6c-1.3-1.3-3.4-1.3-4.7,0l7.4,7.4v19.5c-.5,0-3.5-.3-7.4-1-2.6-.5-4,1.5-4.2,2.4,4.6,1.4,10.1,2,11.6,2,3.7,0,6.7-3,6.7-6.7v-16.1Z" />
  </g>
  <polygon class="st1" points="178.7 89.4 131 89.4 131 24.4 143 24.4 143 77.3 178.7 77.3 178.7 89.4" />
  <path class="st1"
    d="M240,56.9c0,12.3-10,22.3-22.3,22.3s-22.3-10-22.3-22.3,10-22.3,22.3-22.3,22.3,10,22.3,22.3M252,56.9h0V24.4h-12v6.4c-6-5.1-13.8-8.3-22.3-8.3-18.9,0-34.3,15.4-34.3,34.3s15.3,34.3,34.3,34.3,16.3-3.1,22.3-8.3v6.4h12v-32.5Z" />
  <polygon class="st1"
    points="277.7 36.4 277.7 50 302.4 50 302.4 62 277.7 62 277.7 89.4 265.7 89.4 265.7 24.4 311.5 24.4 311.5 36.4 277.7 36.4" />
  <g>
    <path class="st1"
      d="M383.2,56.9c0,19-15.3,34.3-34.3,34.3s-34.3-15.4-34.3-34.3,15.3-34.3,34.3-34.3,34.3,15.4,34.3,34.3M348.9,34.6c-12.3,0-22.3,10-22.3,22.3s10,22.3,22.3,22.3,22.3-10,22.3-22.3c0-12.3-10-22.3-22.3-22.3" />
    <path class="st1"
      d="M444.4,44.2c0-11-8.9-19.9-19.9-19.9h-30.7v65h12v-25.2h8.1l16.3,25.2h14.3l-16.5-25.5c9.3-1.6,16.4-9.8,16.4-19.6M424.5,52.1h-18.7v-15.7h18.7c4.4,0,7.9,3.5,7.9,7.9s-3.5,7.9-7.9,7.9" />
  </g>
  <polygon class="st1"
    points="467.1 36.4 467.1 50 491.7 50 491.7 62 467.1 62 467.1 77.3 500.9 77.3 500.9 89.4 455.1 89.4 455.1 24.4 500.9 24.4 500.9 36.4 467.1 36.4" />
  <path class="st1"
    d="M462.8,18.1V7.5s10.6-5.8,10.9-5.9c1.6-.8,3.3-1.6,5-1.6s3.4.8,5.1,1.6c.3.2,11,5.8,11,5.8v10.6s-12.7-7-13.8-7.5c-1.2-.6-1.9-.6-2.3-.6s-1.4.2-2.2.6c-.7.3-13.7,7.7-13.7,7.7" />
  <polygon class="st1"
    points="512 24.4 512 36.4 533.4 36.4 533.4 89.4 545.4 89.4 545.4 36.4 566.9 36.4 566.9 24.4 512 24.4" />
</svg>