<?xml version="1.0" encoding="UTF-8"?>
<svg xmlns="http://www.w3.org/2000/svg" xmlns:i="http://ns.adobe.com/AdobeIllustrator/10.0/" version="1.1"
  viewBox="0 0 566.9 566.9">
  <!-- Generator: Adobe Illustrator 29.8.1, SVG Export Plug-In . SVG Version: 2.1.1 Build 2)  -->
  <defs>
    <style>
      .st0 {
        fill: #00acff;
      }

      .st1 {
        fill: #143d8a;
      }
    </style>
  </defs>
  <rect class="st1" y="0" width="566.9" height="566.9" />
  <g class="st2">
    <path class="st0"
      d="M249.2,68.2c-11,12.4-10.5,31.4,1.4,43.3,4.6,4.6,18.6,18.6,18.6,18.6,10.9-12.4,10.5-31.4-1.4-43.3-4.6-4.6-18.6-18.6-18.6-18.6" />
    <path class="st0"
      d="M299.5,86.8c-11.9,11.8-12.3,30.8-1.4,43.3,0,0,14-13.9,18.6-18.6,11.9-11.8,12.3-30.8,1.4-43.3,0,0-14,13.9-18.6,18.6" />
    <path class="st0"
      d="M299.5,154.9c-11.9,11.9-12.3,30.9-1.4,43.3,0,0,14-13.9,18.6-18.6,11.9-11.9,12.3-30.9,1.4-43.3,0,0-14,13.9-18.6,18.6" />
    <path class="st0"
      d="M255.1,211.5c-12-12-31.3-12.4-43.8-1.2,0,0,37.7,37.7,50.3,50.3,6,6,14,9.3,22.5,9.3s16.5-3.3,22.5-9.3l50.3-50.3c-12.5-11.2-31.8-10.8-43.8,1.2s-29.1,29.1-29.1,29.1l-29.1-29.1" />
    <path class="st0"
      d="M268.7,155.9l-72.9-72.9c-11.1,12.5-10.7,31.6,1.2,43.6,18.3,18.3,72.9,72.9,72.9,72.9,11.1-12.4,10.7-31.6-1.2-43.6" />
    <path class="st0" d="M453.4,301c.9,16.9,14.9,30.3,32,30.3h13.3c-.9-16.9-14.9-30.3-32-30.3h-13.3" />
    <path class="st0"
      d="M438.9,353.6c11.4-12.5,11.2-31.9-.8-44.1-2.3-2.4-9.4-9.5-9.4-9.5-11.4,12.5-11.2,31.9.8,44.1,2.3,2.4,9.4,9.5,9.4,9.5" />
    <path class="st0"
      d="M335.8,327c12.5,11.2,31.7,10.8,43.6-1.2l54.3-54.3c-12.5-11.2-31.7-10.7-43.6,1.2-13.6,13.5-54.3,54.2-54.3,54.2" />
    <path class="st0"
      d="M491.9,213.8c-12.5-11.2-31.7-10.8-43.7,1.2-7.5,7.5-30,30-30,30,12.5,11.2,31.7,10.8,43.7-1.2s30-30.1,30-30.1" />
    <path class="st0"
      d="M75.8,214.5c12.5-11.2,31.7-10.7,43.6,1.2l54.3,54.3c-12.5,11.2-31.7,10.7-43.6-1.2-13.6-13.6-54.3-54.3-54.3-54.3" />
    <path class="st0"
      d="M96.6,165.6c12.5-11.2,31.7-10.7,43.6,1.2s45.5,45.5,45.5,45.5c-12.5,11.2-31.7,10.7-43.7-1.2-13.5-13.6-45.4-45.5-45.4-45.5" />
    <path class="st0"
      d="M229.7,325.4c-12.5,11.2-31.7,10.8-43.7-1.2s-30-30-30-30c12.5-11.2,31.7-10.8,43.7,1.2s30,30,30,30" />
    <path class="st0"
      d="M434.4,201.6c-12.5-11.2-31.7-10.8-43.7,1.2-11.4,11.4-45.5,45.5-45.5,45.5,12.5,11.2,31.7,10.7,43.7-1.2,11.4-11.4,45.5-45.5,45.5-45.5" />
    <path class="st0" d="M323.8,312.2l10.3-10.3c12-12,12.3-31.2,1.2-43.6l-10.3,10.3c-12,12-12.3,31.2-1.2,43.6" />
    <path class="st0"
      d="M243.2,312.2l-10.3-10.3c-12-12-12.3-31.2-1.2-43.6,0,0,7.7,7.7,10.3,10.3,11.9,12,12.3,31.2,1.2,43.6" />
    <path class="st0"
      d="M401.5,165s7.7-7.7,10.3-10.3c12-12,12.3-31.2,1.2-43.6,0,0-7.7,7.7-10.3,10.3-11.9,11.9-12.3,31.2-1.2,43.6" />
    <path class="st0"
      d="M381.7,376.7s8.8-4.8,11.7-6.4c15-8.2,20.8-26.8,13.5-42,0,0-8.8,4.8-11.7,6.4-15,8.3-20.7,26.8-13.5,42" />
    <path class="st0" d="M455.2,284.3h13.3c17.1,0,31.1-13.5,32-30.3h-13.3c-17.1,0-31.1,13.4-32,30.3" />
    <path class="st0" d="M113.6,301c-.9,16.9-14.9,30.3-32,30.3h-13.3c.9-16.9,14.9-30.3,32-30.3h13.3" />
    <path class="st0"
      d="M128.1,353.5c-11.4-12.5-11.2-31.9.8-44.1,2.3-2.4,9.4-9.5,9.4-9.5,11.4,12.5,11.2,31.9-.8,44.1-2.3,2.3-9.4,9.5-9.4,9.5" />
    <path class="st0"
      d="M185.2,376.7s-8.8-4.8-11.7-6.4c-15-8.2-20.8-26.8-13.4-42,0,0,8.8,4.8,11.7,6.4,14.9,8.3,20.7,26.8,13.4,42" />
    <path class="st0" d="M111.8,284.2h-13.3c-17.1,0-31.1-13.5-32-30.3h13.3c17.1,0,31.1,13.4,32,30.3" />
    <path class="st0"
      d="M469.1,166.9c-12.5-11.2-31.7-10.7-43.7,1.2l-10.3,10.3c12.5,11.2,31.7,10.8,43.7-1.2,2.6-2.6,10.3-10.4,10.3-10.4" />
    <path class="st0"
      d="M368.8,200.3s6.1-9.1,8.1-12.1c9.4-14.1,6.2-33-7.2-43.1,0,0-6.1,9.1-8.1,12.1-9.4,14-6.2,33,7.2,43.1" />
    <path class="st0"
      d="M199.5,200.3s-6.1-9.1-8.1-12.1c-9.4-14.1-6.2-33,7.2-43.1,0,0,6.1,9.1,8.1,12.1,9.4,14,6.2,33-7.2,43.1" />
    <path class="st0" d="M222.9,249.5l-10.3-10.3c-12-12-31.2-12.4-43.7-1.2l10.3,10.3c12,12,31.3,12.4,43.7,1.2" />
    <path class="st0"
      d="M340.3,156.3s22.5-22.5,30-30c12-12,12.3-31.2,1.2-43.7,0,0-22.5,22.5-30,30-12,12-12.3,31.2-1.2,43.7" />
    <path class="st0"
      d="M174.6,159.4c6.1-15.6-.9-33.4-16.4-40.5-3.3-1.5-13.3-6.1-13.3-6.1-6.1,15.6.9,33.4,16.3,40.5,3.4,1.5,13.3,6.1,13.3,6.1" />
    <path class="st0"
      d="M337.2,476.5c-19.5,4-35,5.1-37.4,5.3-1.3.1-2.7.2-4.1.2,1.1,9.6,8.4,16.7,20.8,15.2,12-1.5,28-4.4,42.2-8.7-1-4.4-8.2-14.7-21.5-12" />
    <path class="st0"
      d="M300.3,383.1l37.5-37.5c-6.7-6.6-17.3-6.6-23.9,0l-13.5,13.5v-73.9c-18.7,0-33.9,15.1-33.9,33.9v39.9s-10.1-10.1-13.4-13.5c-6.6-6.6-17.3-6.6-23.9,0l37.4,37.4v98.9c-2.4-.2-17.9-1.4-37.4-5.3-13.3-2.6-20.5,7.6-21.4,12,23.3,7,51.5,10.2,58.8,10.2,18.7,0,33.9-15.1,33.9-33.9v-81.8h0Z" />
  </g>
</svg>